<svg width="25" height="25" viewBox="0 0 25 25" fill="none" xmlns="http://www.w3.org/2000/svg">
<path d="M20.1393 15.2863L17.5993 14.9963C17.3006 14.9612 16.9979 14.9943 16.7139 15.093C16.4298 15.1918 16.1718 15.3536 15.9593 15.5663L14.1193 17.4063C11.2807 15.9623 8.97337 13.6549 7.52931 10.8163L9.37931 8.96632C9.80931 8.53632 10.0193 7.93632 9.94931 7.32632L9.65931 4.80632C9.60283 4.31841 9.36878 3.86834 9.00177 3.54191C8.63477 3.21548 8.16048 3.03552 7.66931 3.03632H5.93931C4.80931 3.03632 3.86931 3.97632 3.93931 5.10632C4.46931 13.6463 11.2993 20.4663 19.8293 20.9963C20.9593 21.0663 21.8993 20.1263 21.8993 18.9963V17.2663C21.9093 16.2563 21.1493 15.4063 20.1393 15.2863Z" fill="#5191C2"/>
</svg>
