<svg width="30" height="29" viewBox="0 0 30 29" fill="none" xmlns="http://www.w3.org/2000/svg">
<path d="M15 1.93332L0 8.69999L4 10.44V13.7267C2.8 14.1133 2 15.2733 2 16.4333C2 17.5933 2.8 18.7533 4 19.14V19.3333L2.2 23.3933C1.6 25.1333 2 27.0667 5 27.0667C8 27.0667 8.4 25.1333 7.8 23.3933L6 19.3333C7.2 18.7533 8 17.7867 8 16.4333C8 15.08 7.2 14.1133 6 13.7267V11.4067L15 15.4667L30 8.69999L15 1.93332ZM23.8 14.5L14.8 18.3667L10 16.24V16.4333C10 17.7867 9.4 18.9467 8.4 19.9133L9.6 22.62V22.8133C9.8 23.5867 10 24.36 9.8 25.1333C11.2 25.7133 12.8 26.1 14.8 26.1C21.4 26.1 23.8 22.2333 23.8 20.3V14.5Z" fill="#EFEFEF"/>
</svg>
