<svg width="25" height="24" viewBox="0 0 25 24" fill="none" xmlns="http://www.w3.org/2000/svg">
<path d="M18.1857 2.75H7.68567C6.42589 2.75 5.21771 3.25045 4.32691 4.14124C3.43611 5.03204 2.93567 6.24022 2.93567 7.5V16.5C2.93567 17.1238 3.05853 17.7415 3.29724 18.3177C3.53595 18.894 3.88583 19.4177 4.32691 19.8588C5.21771 20.7496 6.42589 21.25 7.68567 21.25H18.1857C19.4446 21.2474 20.6513 20.7461 21.5415 19.8558C22.4317 18.9656 22.933 17.759 22.9357 16.5V7.5C22.933 6.24103 22.4317 5.03439 21.5415 4.14416C20.6513 3.25394 19.4446 2.75264 18.1857 2.75ZM14.5357 11.07C14.0437 11.3506 13.4871 11.4981 12.9207 11.4981C12.3543 11.4981 11.7977 11.3506 11.3057 11.07L4.45567 7.14C4.54424 6.3453 4.92268 5.61115 5.51859 5.07797C6.1145 4.54478 6.88605 4.25 7.68567 4.25H18.1857C18.9847 4.25219 19.755 4.54773 20.3505 5.0805C20.9459 5.61327 21.325 6.34616 21.4157 7.14L14.5357 11.07Z" fill="#5191C2"/>
</svg>
